<?xml version="1.0" standalone="no"?>
<!DOCTYPE svg PUBLIC "-//W3C//DTD SVG 20010904//EN"
 "http://www.w3.org/TR/2001/REC-SVG-20010904/DTD/svg10.dtd">
<svg version="1.0" xmlns="http://www.w3.org/2000/svg"
 width="512.000000pt" height="512.000000pt" viewBox="0 0 512.000000 512.000000"
 preserveAspectRatio="xMidYMid meet">
<metadata>
Created by potrace 1.11, written by Peter Selinger 2001-2013
</metadata>
<g transform="translate(0.000000,512.000000) scale(0.100000,-0.100000)"
fill="#000000" stroke="none">
<path d="M4695 4984 c-27 -9 -63 -25 -80 -36 -16 -11 -120 -112 -230 -223
-110 -112 -437 -443 -726 -737 -290 -293 -591 -598 -669 -678 -78 -80 -295
-300 -481 -489 -245 -248 -339 -349 -339 -366 0 -16 55 -77 193 -214 214 -212
224 -220 247 -214 9 2 178 169 377 371 645 655 738 750 1248 1267 635 645 774
786 804 820 46 54 66 114 66 200 0 68 -4 88 -29 137 -69 139 -234 209 -381
162z"/>
<path d="M1768 2070 c-109 -111 -199 -206 -199 -213 -1 -7 -1 -18 0 -25 1 -7
92 -101 202 -210 140 -138 208 -198 226 -200 23 -3 54 25 225 199 109 112 198
210 198 219 0 15 -375 398 -412 421 -7 5 -20 9 -28 9 -8 0 -104 -90 -212 -200z"/>
<path d="M1309 1726 c-2 -2 -29 -7 -59 -10 -140 -15 -289 -60 -419 -126 -338
-171 -544 -484 -596 -905 -13 -108 -83 -245 -177 -350 -62 -69 -54 -107 27
-120 197 -31 256 -37 365 -38 113 -1 242 7 295 18 11 3 36 7 55 9 56 8 199 50
275 81 341 137 600 415 750 803 39 102 41 115 21 134 -8 7 -121 119 -252 249
-217 215 -274 266 -285 255z"/>
</g>
</svg>
